<svg xmlns="http://www.w3.org/2000/svg" width="185" height="89.917" viewBox="0 0 185 89.917">
  <g id="home_logo" transform="translate(19685 -1733)">
    <g id="Raggruppa_2331" data-name="Raggruppa 2331" transform="translate(-19752.803 1683)">
      <g id="Raggruppa_819" data-name="Raggruppa 819" transform="translate(67.802 50)">
        <g id="Raggruppa_817" data-name="Raggruppa 817" transform="translate(19.291 23.148)">
          <path id="Tracciato_242" data-name="Tracciato 242" d="M189.928,121.18a1.384,1.384,0,0,1,.483-.068,1.435,1.435,0,0,1,.5.068v6.812a1.476,1.476,0,0,1-.492.068,1.285,1.285,0,0,1-.492-.068Z" transform="translate(-108.808 -80.231)" fill="#fff"/>
          <path id="Tracciato_243" data-name="Tracciato 243" d="M198.957,129.574a1.379,1.379,0,0,1-.482.068,1.315,1.315,0,0,1-.482-.068V126.1c0-.54-.28-.849-.9-.849a1.321,1.321,0,0,0-1.091.617v3.7a1.446,1.446,0,0,1-.482.068,1.256,1.256,0,0,1-.483-.068v-4.94a1.256,1.256,0,0,1,.483-.068,1.446,1.446,0,0,1,.482.068v.444a1.867,1.867,0,0,1,1.457-.608,1.364,1.364,0,0,1,1.5,1.457Z" transform="translate(-111.217 -81.814)" fill="#fff"/>
          <path id="Tracciato_244" data-name="Tracciato 244" d="M206.884,120.564a2.617,2.617,0,0,1,1.062.2,1.043,1.043,0,0,1-.251.675,2.43,2.43,0,0,0-.743-.106c-.55,0-.714.251-.714.762v.628h1.206a1.447,1.447,0,0,1,.048.376,1.332,1.332,0,0,1-.048.347h-1.206v4.284a1.379,1.379,0,0,1-.482.068,1.255,1.255,0,0,1-.483-.068v-4.284h-.637a1.969,1.969,0,0,1-.049-.366,1.222,1.222,0,0,1,.049-.357h.637v-.579c0-.936.386-1.582,1.611-1.582" transform="translate(-115.717 -79.973)" fill="#fff"/>
          <path id="Tracciato_245" data-name="Tracciato 245" d="M213.792,124.47c1.332,0,2.142.724,2.142,2.634s-.82,2.634-2.142,2.634-2.142-.724-2.142-2.634.821-2.634,2.142-2.634m0,.743c-.7,0-1.157.406-1.157,1.891s.453,1.891,1.157,1.891,1.148-.4,1.148-1.891-.444-1.891-1.148-1.891" transform="translate(-119.046 -81.814)" fill="#fff"/>
          <path id="Tracciato_246" data-name="Tracciato 246" d="M224.827,120.93a3.588,3.588,0,0,1,1.65.328.96.96,0,0,1-.289.734,3.748,3.748,0,0,0-1.244-.222c-1.119,0-1.9.588-1.9,2.74s.781,2.7,1.9,2.7a4.129,4.129,0,0,0,1.341-.222,1.083,1.083,0,0,1,.3.752,4.074,4.074,0,0,1-1.756.328c-1.842,0-2.808-1.216-2.808-3.57,0-2.335.955-3.57,2.808-3.57" transform="translate(-123.933 -80.145)" fill="#fff"/>
          <path id="Tracciato_247" data-name="Tracciato 247" d="M234.318,124.47c1.4,0,1.843.628,1.843,1.872v3.232a.758.758,0,0,1-.376.068.987.987,0,0,1-.386-.068l-.145-.617a1.551,1.551,0,0,1-1.515.782,1.41,1.41,0,0,1-1.5-1.611c0-1.052.646-1.515,1.853-1.515a10.331,10.331,0,0,1,1.1.058v-.357c0-.656-.251-1.033-.994-1.033a4.021,4.021,0,0,0-1.293.241.754.754,0,0,1-.222-.289.83.83,0,0,1-.058-.4,4.187,4.187,0,0,1,1.689-.357m-.1,2.8c-.647,0-.984.251-.984.859,0,.628.318.869.84.869.762,0,1.119-.647,1.119-1.332v-.338c-.222-.019-.608-.058-.975-.058" transform="translate(-128.752 -81.814)" fill="#fff"/>
          <path id="Tracciato_248" data-name="Tracciato 248" d="M247.719,124.47a1.343,1.343,0,0,1,1.438,1.457v3.647a1.384,1.384,0,0,1-.483.068,1.251,1.251,0,0,1-.482-.068V126.1a.745.745,0,0,0-.84-.849,1.22,1.22,0,0,0-1.033.617v3.7a1.35,1.35,0,0,1-.473.068,1.251,1.251,0,0,1-.482-.068V126.1a.745.745,0,0,0-.84-.849,1.275,1.275,0,0,0-1.032.607v3.715a1.35,1.35,0,0,1-.473.068,1.257,1.257,0,0,1-.483-.068v-4.939a1.257,1.257,0,0,1,.483-.068,1.35,1.35,0,0,1,.473.068v.434a1.8,1.8,0,0,1,1.389-.6,1.292,1.292,0,0,1,1.255.7,1.947,1.947,0,0,1,1.582-.7" transform="translate(-133.604 -81.814)" fill="#fff"/>
          <path id="Tracciato_249" data-name="Tracciato 249" d="M258.537,127.4c.078,1.148.541,1.515,1.341,1.515a2.338,2.338,0,0,0,1.138-.28,1,1,0,0,1,.309.695,2.847,2.847,0,0,1-1.6.4c-1.486,0-2.181-.916-2.181-2.663,0-1.823.859-2.6,2.142-2.6a1.741,1.741,0,0,1,1.91,1.939,4.129,4.129,0,0,1-.106.994Zm1.148-2.171c-.627,0-1.071.414-1.148,1.486H260.6a3.285,3.285,0,0,0,.029-.434c0-.569-.231-1.052-.945-1.052" transform="translate(-140.676 -81.814)" fill="#fff"/>
          <path id="Tracciato_250" data-name="Tracciato 250" d="M269.78,124.488a1.522,1.522,0,0,1,.84.241,1.092,1.092,0,0,1-.425.81.972.972,0,0,0-.6-.2,1.249,1.249,0,0,0-.994.734v3.512a1.379,1.379,0,0,1-.482.068,1.257,1.257,0,0,1-.483-.068v-4.94a1.257,1.257,0,0,1,.483-.068,1.379,1.379,0,0,1,.482.068v.666a1.407,1.407,0,0,1,1.177-.82" transform="translate(-145.434 -81.822)" fill="#fff"/>
          <path id="Tracciato_251" data-name="Tracciato 251" d="M275.7,127.4c.078,1.148.54,1.515,1.341,1.515a2.338,2.338,0,0,0,1.138-.28.992.992,0,0,1,.309.695,2.843,2.843,0,0,1-1.6.4c-1.486,0-2.181-.916-2.181-2.663,0-1.823.859-2.6,2.142-2.6a1.741,1.741,0,0,1,1.91,1.939,4.132,4.132,0,0,1-.106.994Zm1.148-2.171c-.628,0-1.071.414-1.148,1.486h2.065a3.285,3.285,0,0,0,.029-.434c0-.569-.232-1.052-.945-1.052" transform="translate(-148.763 -81.814)" fill="#fff"/>
          <path id="Tracciato_252" data-name="Tracciato 252" d="M46.591,87.419c-.187,0-.361-.005-.549-.011-.955-.029-1.972-.03-2.76-.024a3.7,3.7,0,0,1,.062,1.147c.769-.006,1.756,0,2.675.024.195.005.406.009.6.011,1.91.026,2.77.111,2.77,1.822v16.1a3.15,3.15,0,0,1-1.19,2.458,27.27,27.27,0,0,1-5.623,2.583l-.874.336a2.821,2.821,0,1,0,.362,1.09l.917-.355a27.149,27.149,0,0,0,5.881-2.751,4.259,4.259,0,0,0,1.584-3.361v-16.1c0-2.915-2.125-2.945-3.855-2.969m-6.641,26.355a.824.824,0,1,1-.169-1.154.819.819,0,0,1,.169,1.154" transform="translate(-36.489 -64.333)" fill="#fff"/>
          <path id="Tracciato_253" data-name="Tracciato 253" d="M55,77.435,46.592,72.49a3.646,3.646,0,0,1-.5,1.023l8.367,4.917a3.124,3.124,0,0,1,1.569,2.756V100.7a4.605,4.605,0,0,1-.549,2.3,2.915,2.915,0,0,1-.7.848l-4,4.059c-.02-.011-.033-.027-.053-.038a2.82,2.82,0,1,0,.932.791l3.893-3.943a3.763,3.763,0,0,0,.883-1.151,5.724,5.724,0,0,0,.655-2.862V81.186A4.216,4.216,0,0,0,55,77.435m-4.832,33.292a.827.827,0,0,1-.734.445.825.825,0,0,1,0-1.651.809.809,0,0,1,.379.094.826.826,0,0,1,.351,1.112" transform="translate(-41.016 -57.315)" fill="#fff"/>
          <path id="Tracciato_254" data-name="Tracciato 254" d="M66.815,61l-5.39-12.96s0-.005-.009,0a3.968,3.968,0,0,1-1.068.434L65.8,61.435a14.374,14.374,0,0,1,1.176,5.5V94.709a7.088,7.088,0,0,1-.181,1.156l-1.706,5.278c-.05,0-.093-.012-.143-.012a2.8,2.8,0,0,0-.437,5.565,2.835,2.835,0,0,0,.45.036,2.8,2.8,0,0,0,1.229-5.315l1.643-5.243.05-.073a8.121,8.121,0,0,0,.153-1.391V66.935A15.47,15.47,0,0,0,66.815,61m-1.041,43.067a.821.821,0,0,1-.946.683.824.824,0,0,1-.683-.945.825.825,0,1,1,1.628.263" transform="translate(-47.734 -45.788)" fill="#fff"/>
          <path id="Tracciato_255" data-name="Tracciato 255" d="M75.9,105.017V43.786a2.9,2.9,0,0,1-1.057,0V105a3.044,3.044,0,0,0-2.3,2.752,2.812,2.812,0,0,0,2.814,2.8,2.783,2.783,0,0,0,2.779-2.8,2.539,2.539,0,0,0-2.24-2.738m-.525,3.562a.824.824,0,1,1,.824-.824.825.825,0,0,1-.824.824" transform="translate(-53.484 -43.786)" fill="#fff"/>
          <path id="Tracciato_256" data-name="Tracciato 256" d="M83.976,101.111c-.033,0-.066.007-.1.008L82.13,95.845a7.034,7.034,0,0,1-.182-1.156V66.916a14.379,14.379,0,0,1,1.182-5.5l5.427-12.988a3.771,3.771,0,0,1-1.028-.435l-5.42,12.983a15.467,15.467,0,0,0-1.219,5.94V94.69a8.138,8.138,0,0,0,.163,1.391l1.692,5.308a2.8,2.8,0,0,0,1.221,5.323,2.849,2.849,0,0,0,.451-.036,2.8,2.8,0,0,0-.441-5.565m.665,3.284a.821.821,0,0,1-.537.331.821.821,0,0,1-.946-.683.825.825,0,1,1,1.483.352" transform="translate(-57.416 -45.769)" fill="#fff"/>
          <path id="Tracciato_257" data-name="Tracciato 257" d="M93.326,108.19a2.781,2.781,0,0,0-.564.066l-5.794-8.246a5.156,5.156,0,0,1-1.02-2.843V73.684a7.035,7.035,0,0,1,1.914-4.607l8.405-9.268a3.68,3.68,0,0,1-.825-.758l-8.407,9.259a8.115,8.115,0,0,0-2.145,5.373V97.167a6.257,6.257,0,0,0,1.186,3.491l5.585,8.07a2.811,2.811,0,1,0,1.664-.539m.259,3.583a.806.806,0,0,1-.26.043.825.825,0,0,1-.259-1.608.835.835,0,0,1,.26-.043.825.825,0,0,1,.259,1.608" transform="translate(-59.301 -50.981)" fill="#fff"/>
          <path id="Tracciato_258" data-name="Tracciato 258" d="M49.742,110.123a2.8,2.8,0,1,0,4.308-1.381l5.576-8.07a6.232,6.232,0,0,0,1.164-3.491V73.7a8.1,8.1,0,0,0-2.125-5.374L50.293,59.08a5.07,5.07,0,0,1-.834.757l8.382,9.253A7.01,7.01,0,0,1,59.732,73.7V97.18a5.128,5.128,0,0,1-1,2.843l-5.768,8.246a2.756,2.756,0,0,0-3.224,1.855m1.875.622a.825.825,0,1,1,.783,1.084.8.8,0,0,1-.26-.043.825.825,0,0,1-.523-1.042" transform="translate(-42.602 -50.994)" fill="#fff"/>
          <path id="Tracciato_259" data-name="Tracciato 259" d="M96.546,107.521a2.785,2.785,0,0,0-1.291.317c-.02.01-.034.024-.054.035l-3.966-4.014-.055-.043a2.788,2.788,0,0,1-.68-.847,4.609,4.609,0,0,1-.553-2.3V81.16a3.12,3.12,0,0,1,1.569-2.76l8.42-4.937a3.726,3.726,0,0,1-.528-1.027L91,77.405A4.23,4.23,0,0,0,88.89,81.16v19.513a5.73,5.73,0,0,0,.657,2.861,3.958,3.958,0,0,0,.934,1.152l3.85,3.926a2.8,2.8,0,1,0,2.214-1.092m.383,3.532a.825.825,0,1,1,.35-1.112.818.818,0,0,1-.35,1.112" transform="translate(-61.186 -57.289)" fill="#fff"/>
          <path id="Tracciato_260" data-name="Tracciato 260" d="M106.28,111.611a2.8,2.8,0,0,0-4.661.253c-.28-.109-.557-.217-.851-.33a27.444,27.444,0,0,1-5.637-2.583,3.144,3.144,0,0,1-1.184-2.458v-16.1c0-1.711.854-1.8,2.763-1.822.192,0,.392-.006.586-.011.943-.029,1.959-.03,2.736-.023a3.717,3.717,0,0,1,.06-1.147c-.8-.007-1.847-.006-2.827.023-.188.006-.341.008-.528.011-1.73.024-3.849.054-3.849,2.969v16.1a4.255,4.255,0,0,0,1.58,3.361,27.253,27.253,0,0,0,5.893,2.751c.306.118.6.232.89.345a2.8,2.8,0,1,0,5.027-1.339m-1.754,2.334a.824.824,0,1,1,.17-1.154.819.819,0,0,1-.17,1.154" transform="translate(-63.072 -64.333)" fill="#fff"/>
        </g>
        <g id="Raggruppa_816" data-name="Raggruppa 816" transform="translate(0 0)">
          <path id="Tracciato_261" data-name="Tracciato 261" d="M189.928,142.348a1.385,1.385,0,0,1,.483-.068,1.43,1.43,0,0,1,.5.068v6.812a1.475,1.475,0,0,1-.491.068,1.291,1.291,0,0,1-.493-.068Z" transform="translate(-89.517 -67.06)" fill="#fff"/>
          <path id="Tracciato_262" data-name="Tracciato 262" d="M198.958,150.742a1.382,1.382,0,0,1-.482.068,1.311,1.311,0,0,1-.482-.068v-3.473c0-.541-.28-.85-.9-.85a1.321,1.321,0,0,0-1.091.617v3.7a1.445,1.445,0,0,1-.482.068,1.261,1.261,0,0,1-.483-.068V145.8a1.261,1.261,0,0,1,.483-.068,1.446,1.446,0,0,1,.482.068v.444a1.868,1.868,0,0,1,1.457-.607,1.363,1.363,0,0,1,1.5,1.456Z" transform="translate(-91.926 -68.643)" fill="#fff"/>
          <path id="Tracciato_263" data-name="Tracciato 263" d="M209.272,150.742a1.382,1.382,0,0,1-.482.068,1.311,1.311,0,0,1-.482-.068v-3.473c0-.541-.28-.85-.9-.85a1.321,1.321,0,0,0-1.091.617v3.7a1.445,1.445,0,0,1-.482.068,1.261,1.261,0,0,1-.483-.068V145.8a1.261,1.261,0,0,1,.483-.068,1.445,1.445,0,0,1,.482.068v.444a1.868,1.868,0,0,1,1.457-.607,1.363,1.363,0,0,1,1.5,1.456Z" transform="translate(-96.787 -68.643)" fill="#fff"/>
          <path id="Tracciato_264" data-name="Tracciato 264" d="M217.39,145.639c1.332,0,2.143.723,2.143,2.633s-.821,2.634-2.143,2.634-2.142-.724-2.142-2.634.82-2.633,2.142-2.633m0,.742c-.7,0-1.157.405-1.157,1.891s.453,1.891,1.157,1.891,1.148-.4,1.148-1.891-.444-1.891-1.148-1.891" transform="translate(-101.451 -68.643)" fill="#fff"/>
          <path id="Tracciato_265" data-name="Tracciato 265" d="M226.95,148.927a7.778,7.778,0,0,1,.271,1.032h.038s.116-.472.3-1.032l1.052-3.039a1.179,1.179,0,0,1,.435-.068,1.232,1.232,0,0,1,.453.068l-1.7,4.94a2.351,2.351,0,0,1-.578.068,2.179,2.179,0,0,1-.579-.068l-1.737-4.94a1.587,1.587,0,0,1,.5-.068,1.441,1.441,0,0,1,.5.068Z" transform="translate(-106.002 -68.728)" fill="#fff"/>
          <path id="Tracciato_266" data-name="Tracciato 266" d="M237.074,145.639c1.4,0,1.843.627,1.843,1.872v3.232a.757.757,0,0,1-.376.068.988.988,0,0,1-.386-.068l-.144-.618a1.551,1.551,0,0,1-1.515.782A1.41,1.41,0,0,1,235,149.3c0-1.052.646-1.515,1.852-1.515a10.325,10.325,0,0,1,1.1.058v-.357c0-.656-.251-1.032-.994-1.032a4.015,4.015,0,0,0-1.293.241.76.76,0,0,1-.222-.289.838.838,0,0,1-.058-.4,4.192,4.192,0,0,1,1.689-.357m-.1,2.8c-.647,0-.984.251-.984.859,0,.628.318.869.839.869.762,0,1.12-.647,1.12-1.332v-.338c-.222-.019-.609-.058-.975-.058" transform="translate(-110.761 -68.643)" fill="#fff"/>
          <path id="Tracciato_267" data-name="Tracciato 267" d="M247.437,145.656a1.519,1.519,0,0,1,.84.241,1.093,1.093,0,0,1-.424.81.976.976,0,0,0-.6-.2,1.249,1.249,0,0,0-.994.733v3.512a1.379,1.379,0,0,1-.482.068,1.254,1.254,0,0,1-.482-.068v-4.94a1.255,1.255,0,0,1,.482-.068,1.38,1.38,0,0,1,.482.068v.666a1.406,1.406,0,0,1,1.177-.821" transform="translate(-115.612 -68.651)" fill="#fff"/>
          <path id="Tracciato_268" data-name="Tracciato 268" d="M253.352,148.571c.078,1.148.541,1.515,1.341,1.515a2.338,2.338,0,0,0,1.139-.28,1,1,0,0,1,.309.7,2.849,2.849,0,0,1-1.6.4c-1.486,0-2.181-.916-2.181-2.663,0-1.823.859-2.6,2.142-2.6a1.741,1.741,0,0,1,1.91,1.939,4.142,4.142,0,0,1-.105.993Zm1.148-2.17c-.627,0-1.071.414-1.148,1.486h2.065a3.389,3.389,0,0,0,.029-.435c0-.569-.231-1.052-.946-1.052" transform="translate(-118.942 -68.643)" fill="#fff"/>
          <path id="Tracciato_269" data-name="Tracciato 269" d="M267.427,146.5c.078,1.148.541,1.515,1.341,1.515a2.339,2.339,0,0,0,1.139-.28,1,1,0,0,1,.309.7,2.849,2.849,0,0,1-1.6.4c-1.486,0-2.181-.916-2.181-2.663,0-1.823.859-2.6,2.142-2.6a1.741,1.741,0,0,1,1.91,1.939,4.142,4.142,0,0,1-.105.993Zm-.009-4.891a.957.957,0,0,1,.839-.357l.917,1.36a.822.822,0,0,1-.55.3Zm1.157,2.721c-.626,0-1.07.414-1.148,1.486h2.065a3.405,3.405,0,0,0,.029-.435c0-.569-.231-1.052-.946-1.052" transform="translate(-125.576 -66.573)" fill="#fff"/>
          <path id="Tracciato_270" data-name="Tracciato 270" d="M283.462,142.1a3.587,3.587,0,0,1,1.65.328.964.964,0,0,1-.29.733,3.748,3.748,0,0,0-1.244-.222c-1.119,0-1.9.588-1.9,2.74s.782,2.7,1.9,2.7a4.133,4.133,0,0,0,1.341-.222,1.078,1.078,0,0,1,.3.753,4.074,4.074,0,0,1-1.755.328c-1.843,0-2.808-1.216-2.808-3.57,0-2.335.955-3.57,2.808-3.57" transform="translate(-132.278 -66.973)" fill="#fff"/>
          <path id="Tracciato_271" data-name="Tracciato 271" d="M293.622,145.656a1.524,1.524,0,0,1,.84.241,1.091,1.091,0,0,1-.426.81.973.973,0,0,0-.6-.2,1.249,1.249,0,0,0-.993.733v3.512a1.378,1.378,0,0,1-.482.068,1.264,1.264,0,0,1-.483-.068v-4.94a1.265,1.265,0,0,1,.483-.068,1.379,1.379,0,0,1,.482.068v.666a1.406,1.406,0,0,1,1.177-.821" transform="translate(-137.38 -68.651)" fill="#fff"/>
          <path id="Tracciato_272" data-name="Tracciato 272" d="M299.537,148.571c.078,1.148.54,1.515,1.341,1.515a2.333,2.333,0,0,0,1.138-.28,1,1,0,0,1,.309.7,2.845,2.845,0,0,1-1.6.4c-1.486,0-2.181-.916-2.181-2.663,0-1.823.859-2.6,2.143-2.6a1.741,1.741,0,0,1,1.91,1.939,4.1,4.1,0,0,1-.106.993Zm1.148-2.17c-.628,0-1.071.414-1.148,1.486H301.6a3.207,3.207,0,0,0,.029-.435c0-.569-.231-1.052-.945-1.052" transform="translate(-140.709 -68.643)" fill="#fff"/>
          <path id="Tracciato_273" data-name="Tracciato 273" d="M310.016,145.639a2.745,2.745,0,0,1,1.36.26.982.982,0,0,1-.251.685,3.572,3.572,0,0,0-1.013-.154c-.656,0-.984.241-.984.694,0,.473.608.589,1.215.792.628.2,1.284.5,1.284,1.447,0,.974-.608,1.544-1.833,1.544a3.446,3.446,0,0,1-1.612-.347.983.983,0,0,1,.261-.714,4.115,4.115,0,0,0,1.3.241c.589,0,.926-.221.926-.694,0-.531-.531-.647-1.1-.811-.657-.193-1.37-.472-1.37-1.428,0-.907.589-1.514,1.815-1.514" transform="translate(-145.252 -68.643)" fill="#fff"/>
          <path id="Tracciato_274" data-name="Tracciato 274" d="M317.646,148.272c0,1.264.406,1.814,1.332,1.814a2.48,2.48,0,0,0,.906-.164,1.014,1.014,0,0,1,.28.695,2.623,2.623,0,0,1-1.389.289c-1.409,0-2.123-.916-2.123-2.634s.714-2.633,2.123-2.633a2.534,2.534,0,0,1,1.293.241.986.986,0,0,1-.28.694,2.356,2.356,0,0,0-.85-.144c-.926,0-1.293.588-1.293,1.842" transform="translate(-149.245 -68.643)" fill="#fff"/>
          <path id="Tracciato_275" data-name="Tracciato 275" d="M326.1,148.571c.078,1.148.54,1.515,1.341,1.515a2.336,2.336,0,0,0,1.138-.28,1,1,0,0,1,.309.7,2.845,2.845,0,0,1-1.6.4c-1.486,0-2.181-.916-2.181-2.663,0-1.823.859-2.6,2.143-2.6a1.741,1.741,0,0,1,1.91,1.939,4.1,4.1,0,0,1-.106.993Zm1.148-2.17c-.628,0-1.071.414-1.148,1.486h2.064a3.211,3.211,0,0,0,.029-.435c0-.569-.231-1.052-.945-1.052" transform="translate(-153.228 -68.643)" fill="#fff"/>
          <path id="Tracciato_276" data-name="Tracciato 276" d="M337.341,145.656a1.519,1.519,0,0,1,.84.241,1.093,1.093,0,0,1-.424.81.976.976,0,0,0-.6-.2,1.249,1.249,0,0,0-.994.733v3.512a1.379,1.379,0,0,1-.482.068,1.254,1.254,0,0,1-.482-.068v-4.94a1.255,1.255,0,0,1,.482-.068,1.379,1.379,0,0,1,.482.068v.666a1.406,1.406,0,0,1,1.177-.821" transform="translate(-157.986 -68.651)" fill="#fff"/>
          <path id="Tracciato_277" data-name="Tracciato 277" d="M343.257,148.571c.078,1.148.541,1.515,1.341,1.515a2.338,2.338,0,0,0,1.139-.28,1,1,0,0,1,.309.7,2.849,2.849,0,0,1-1.6.4c-1.486,0-2.181-.916-2.181-2.663,0-1.823.859-2.6,2.142-2.6a1.741,1.741,0,0,1,1.91,1.939,4.137,4.137,0,0,1-.105.993Zm1.148-2.17c-.626,0-1.071.414-1.148,1.486h2.065a3.4,3.4,0,0,0,.029-.435c0-.569-.231-1.052-.946-1.052" transform="translate(-161.316 -68.643)" fill="#fff"/>
          <path id="Tracciato_278" data-name="Tracciato 278" d="M189.928,7.323a7.671,7.671,0,0,0,.882-.2,5.053,5.053,0,0,1,1.018-.2,13.894,13.894,0,0,1,1.493-.068,14.933,14.933,0,0,1,1.527.068,6.694,6.694,0,0,1,1.12.2c.361.092.655.159.882.2V55.349a6.75,6.75,0,0,1-.882.272,12.862,12.862,0,0,1-2.579.2,12.116,12.116,0,0,1-2.647-.2,7.834,7.834,0,0,1-.814-.272Z" transform="translate(-89.517 -3.227)" fill="#fff"/>
          <path id="Tracciato_279" data-name="Tracciato 279" d="M221.894,30.73q0-12.449,4.954-18.809t14.8-6.36a29.313,29.313,0,0,1,4.99.374q2.137.374,3.631.781a19.867,19.867,0,0,1,2.986,1.157,5.479,5.479,0,0,1-.475,2.925,9.526,9.526,0,0,1-1.561,2.245q-1.221-.408-2.579-.749a20.718,20.718,0,0,0-2.783-.578,23.549,23.549,0,0,0-3.394-.238,15.879,15.879,0,0,0-5.43.884,9.469,9.469,0,0,0-4.208,3.095,15.977,15.977,0,0,0-2.748,5.918,37.52,37.52,0,0,0-.984,9.422,37.1,37.1,0,0,0,.984,9.387A15.279,15.279,0,0,0,232.821,46a9.393,9.393,0,0,0,4.208,2.993,16.43,16.43,0,0,0,5.43.85,31.793,31.793,0,0,0,3.7-.2,22.074,22.074,0,0,0,3.02-.545,19.088,19.088,0,0,0,2.715-.816,5.952,5.952,0,0,1,1.527,2.346,9.829,9.829,0,0,1,.576,2.96,16.234,16.234,0,0,1-3.189,1.157,27.291,27.291,0,0,1-3.869.816,36.8,36.8,0,0,1-5.294.34q-9.772,0-14.761-6.327T221.894,30.73" transform="translate(-104.583 -2.621)" fill="#fff"/>
          <path id="Tracciato_280" data-name="Tracciato 280" d="M78.3,33.488a3.734,3.734,0,1,1-3.734-3.734A3.734,3.734,0,0,1,78.3,33.488" transform="translate(-33.386 -14.024)" fill="#fff"/>
          <path id="Tracciato_281" data-name="Tracciato 281" d="M111.662,63.241a3.734,3.734,0,1,0,4.189,3.214,3.733,3.733,0,0,0-4.189-3.214" transform="translate(-51.098 -29.792)" fill="#fff"/>
          <path id="Tracciato_282" data-name="Tracciato 282" d="M111.371,81.987a3.734,3.734,0,1,0,2.232,4.786,3.734,3.734,0,0,0-2.232-4.786" transform="translate(-50.129 -38.536)" fill="#fff"/>
          <path id="Tracciato_283" data-name="Tracciato 283" d="M109.027,54.443a3.734,3.734,0,1,1,1.143-5.155,3.734,3.734,0,0,1-1.143,5.155" transform="translate(-48.681 -22.416)" fill="#fff"/>
          <path id="Tracciato_284" data-name="Tracciato 284" d="M97.041,40.51a3.734,3.734,0,1,1-1.366-5.1,3.733,3.733,0,0,1,1.366,5.1" transform="translate(-42.453 -16.454)" fill="#fff"/>
          <path id="Tracciato_285" data-name="Tracciato 285" d="M37.588,63.241A3.734,3.734,0,1,1,33.4,66.456a3.733,3.733,0,0,1,4.189-3.214" transform="translate(-15.726 -29.792)" fill="#fff"/>
          <path id="Tracciato_286" data-name="Tracciato 286" d="M37.841,81.987a3.734,3.734,0,1,1-2.232,4.786,3.734,3.734,0,0,1,2.232-4.786" transform="translate(-16.677 -38.536)" fill="#fff"/>
          <path id="Tracciato_287" data-name="Tracciato 287" d="M40.222,54.443a3.734,3.734,0,1,0-1.144-5.155,3.734,3.734,0,0,0,1.144,5.155" transform="translate(-18.143 -22.416)" fill="#fff"/>
          <path id="Tracciato_288" data-name="Tracciato 288" d="M52.207,40.51a3.734,3.734,0,1,0,1.366-5.1,3.733,3.733,0,0,0-1.366,5.1" transform="translate(-24.37 -16.454)" fill="#fff"/>
          <path id="Tracciato_289" data-name="Tracciato 289" d="M78.3,8.77a3.734,3.734,0,1,1-3.734-3.734A3.734,3.734,0,0,1,78.3,8.77" transform="translate(-33.386 -2.374)" fill="#fff"/>
          <path id="Tracciato_290" data-name="Tracciato 290" d="M87.762,2.848A3.734,3.734,0,1,0,92.276.108a3.734,3.734,0,0,0-4.514,2.74" transform="translate(-41.313 0)" fill="#fff"/>
          <path id="Tracciato_291" data-name="Tracciato 291" d="M118.187,16.751a3.734,3.734,0,1,0,5.269-.345,3.735,3.735,0,0,0-5.269.345" transform="translate(-55.267 -7.296)" fill="#fff"/>
          <path id="Tracciato_292" data-name="Tracciato 292" d="M138.754,43.132a3.734,3.734,0,1,0,4.833,2.127,3.734,3.734,0,0,0-4.833-2.127" transform="translate(-64.275 -20.209)" fill="#fff"/>
          <path id="Tracciato_293" data-name="Tracciato 293" d="M145.922,76.029a3.734,3.734,0,1,0,3.3,4.118,3.733,3.733,0,0,0-3.3-4.118" transform="translate(-66.825 -35.823)" fill="#fff"/>
          <path id="Tracciato_294" data-name="Tracciato 294" d="M100.494,14.2a3.734,3.734,0,1,0,5.036-1.588,3.734,3.734,0,0,0-5.036,1.588" transform="translate(-47.166 -5.745)" fill="#fff"/>
          <path id="Tracciato_295" data-name="Tracciato 295" d="M124.3,32.715a3.734,3.734,0,1,0,5.2.917,3.733,3.733,0,0,0-5.2-.917" transform="translate(-57.834 -15.101)" fill="#fff"/>
          <path id="Tracciato_296" data-name="Tracciato 296" d="M136.866,60.129a3.734,3.734,0,1,0,4.189,3.214,3.733,3.733,0,0,0-4.189-3.214" transform="translate(-62.977 -28.325)" fill="#fff"/>
          <path id="Tracciato_297" data-name="Tracciato 297" d="M134.352,90.248a3.734,3.734,0,1,0,2.232,4.786,3.733,3.733,0,0,0-2.232-4.786" transform="translate(-60.961 -42.429)" fill="#fff"/>
          <path id="Tracciato_298" data-name="Tracciato 298" d="M61.486,2.848A3.734,3.734,0,1,1,56.972.108a3.734,3.734,0,0,1,4.514,2.74" transform="translate(-25.51 0)" fill="#fff"/>
          <path id="Tracciato_299" data-name="Tracciato 299" d="M31.063,16.751a3.734,3.734,0,1,1-5.269-.345,3.735,3.735,0,0,1,5.269.345" transform="translate(-11.558 -7.296)" fill="#fff"/>
          <path id="Tracciato_300" data-name="Tracciato 300" d="M10.494,43.132a3.734,3.734,0,1,1-4.833,2.127,3.734,3.734,0,0,1,4.833-2.127" transform="translate(-2.548 -20.209)" fill="#fff"/>
          <path id="Tracciato_301" data-name="Tracciato 301" d="M3.328,76.029a3.734,3.734,0,1,1-3.3,4.118,3.733,3.733,0,0,1,3.3-4.118" transform="translate(0 -35.823)" fill="#fff"/>
          <path id="Tracciato_302" data-name="Tracciato 302" d="M48.755,14.2a3.734,3.734,0,1,1-5.036-1.588A3.734,3.734,0,0,1,48.755,14.2" transform="translate(-19.658 -5.745)" fill="#fff"/>
          <path id="Tracciato_303" data-name="Tracciato 303" d="M24.95,32.715a3.734,3.734,0,1,1-5.2.917,3.733,3.733,0,0,1,5.2-.917" transform="translate(-8.99 -15.101)" fill="#fff"/>
          <path id="Tracciato_304" data-name="Tracciato 304" d="M12.383,60.129a3.734,3.734,0,1,1-4.189,3.214,3.734,3.734,0,0,1,4.189-3.214" transform="translate(-3.847 -28.325)" fill="#fff"/>
          <path id="Tracciato_305" data-name="Tracciato 305" d="M14.9,90.248a3.734,3.734,0,1,1-2.232,4.786A3.734,3.734,0,0,1,14.9,90.248" transform="translate(-5.862 -42.429)" fill="#fff"/>
          <path id="Tracciato_306" data-name="Tracciato 306" d="M83.44,19.984a3.734,3.734,0,1,0,4.514-2.74,3.733,3.733,0,0,0-4.514,2.74" transform="translate(-39.276 -8.077)" fill="#fff"/>
          <path id="Tracciato_307" data-name="Tracciato 307" d="M106.44,29.96a3.734,3.734,0,1,0,5.269-.345,3.734,3.734,0,0,0-5.269.345" transform="translate(-49.731 -13.522)" fill="#fff"/>
          <path id="Tracciato_308" data-name="Tracciato 308" d="M122.234,49.427a3.734,3.734,0,1,0,4.833,2.127,3.734,3.734,0,0,0-4.833-2.127" transform="translate(-56.489 -23.176)" fill="#fff"/>
          <path id="Tracciato_309" data-name="Tracciato 309" d="M127.361,73.989a3.734,3.734,0,1,0,3.3,4.117,3.732,3.732,0,0,0-3.3-4.117" transform="translate(-58.077 -34.862)" fill="#fff"/>
          <path id="Tracciato_310" data-name="Tracciato 310" d="M65.808,19.984a3.734,3.734,0,1,1-4.514-2.74,3.733,3.733,0,0,1,4.514,2.74" transform="translate(-27.547 -8.077)" fill="#fff"/>
          <path id="Tracciato_311" data-name="Tracciato 311" d="M42.81,29.96a3.734,3.734,0,1,1-5.269-.345,3.734,3.734,0,0,1,5.269.345" transform="translate(-17.095 -13.522)" fill="#fff"/>
          <path id="Tracciato_312" data-name="Tracciato 312" d="M27.014,49.427a3.734,3.734,0,1,1-4.833,2.127,3.734,3.734,0,0,1,4.833-2.127" transform="translate(-10.334 -23.176)" fill="#fff"/>
          <path id="Tracciato_313" data-name="Tracciato 313" d="M21.889,73.989a3.734,3.734,0,1,1-3.3,4.117,3.733,3.733,0,0,1,3.3-4.117" transform="translate(-8.749 -34.862)" fill="#fff"/>
        </g>
      </g>
      <g id="Raggruppa_820" data-name="Raggruppa 820" transform="translate(67.802 50)">
        <g id="Raggruppa_817-2" data-name="Raggruppa 817" transform="translate(19.291 23.148)">
          <path id="Tracciato_242-2" data-name="Tracciato 242" d="M189.928,121.18a1.384,1.384,0,0,1,.483-.068,1.435,1.435,0,0,1,.5.068v6.812a1.476,1.476,0,0,1-.492.068,1.285,1.285,0,0,1-.492-.068Z" transform="translate(-108.808 -80.231)" fill="#fff"/>
          <path id="Tracciato_243-2" data-name="Tracciato 243" d="M198.957,129.574a1.379,1.379,0,0,1-.482.068,1.315,1.315,0,0,1-.482-.068V126.1c0-.54-.28-.849-.9-.849a1.321,1.321,0,0,0-1.091.617v3.7a1.446,1.446,0,0,1-.482.068,1.256,1.256,0,0,1-.483-.068v-4.94a1.256,1.256,0,0,1,.483-.068,1.446,1.446,0,0,1,.482.068v.444a1.867,1.867,0,0,1,1.457-.608,1.364,1.364,0,0,1,1.5,1.457Z" transform="translate(-111.217 -81.814)" fill="#fff"/>
          <path id="Tracciato_244-2" data-name="Tracciato 244" d="M206.884,120.564a2.617,2.617,0,0,1,1.062.2,1.043,1.043,0,0,1-.251.675,2.43,2.43,0,0,0-.743-.106c-.55,0-.714.251-.714.762v.628h1.206a1.447,1.447,0,0,1,.048.376,1.332,1.332,0,0,1-.048.347h-1.206v4.284a1.379,1.379,0,0,1-.482.068,1.255,1.255,0,0,1-.483-.068v-4.284h-.637a1.969,1.969,0,0,1-.049-.366,1.222,1.222,0,0,1,.049-.357h.637v-.579c0-.936.386-1.582,1.611-1.582" transform="translate(-115.717 -79.973)" fill="#fff"/>
          <path id="Tracciato_245-2" data-name="Tracciato 245" d="M213.792,124.47c1.332,0,2.142.724,2.142,2.634s-.82,2.634-2.142,2.634-2.142-.724-2.142-2.634.821-2.634,2.142-2.634m0,.743c-.7,0-1.157.406-1.157,1.891s.453,1.891,1.157,1.891,1.148-.4,1.148-1.891-.444-1.891-1.148-1.891" transform="translate(-119.046 -81.814)" fill="#fff"/>
          <path id="Tracciato_246-2" data-name="Tracciato 246" d="M224.827,120.93a3.588,3.588,0,0,1,1.65.328.96.96,0,0,1-.289.734,3.748,3.748,0,0,0-1.244-.222c-1.119,0-1.9.588-1.9,2.74s.781,2.7,1.9,2.7a4.129,4.129,0,0,0,1.341-.222,1.083,1.083,0,0,1,.3.752,4.074,4.074,0,0,1-1.756.328c-1.842,0-2.808-1.216-2.808-3.57,0-2.335.955-3.57,2.808-3.57" transform="translate(-123.933 -80.145)" fill="#fff"/>
          <path id="Tracciato_247-2" data-name="Tracciato 247" d="M234.318,124.47c1.4,0,1.843.628,1.843,1.872v3.232a.758.758,0,0,1-.376.068.987.987,0,0,1-.386-.068l-.145-.617a1.551,1.551,0,0,1-1.515.782,1.41,1.41,0,0,1-1.5-1.611c0-1.052.646-1.515,1.853-1.515a10.331,10.331,0,0,1,1.1.058v-.357c0-.656-.251-1.033-.994-1.033a4.021,4.021,0,0,0-1.293.241.754.754,0,0,1-.222-.289.83.83,0,0,1-.058-.4,4.187,4.187,0,0,1,1.689-.357m-.1,2.8c-.647,0-.984.251-.984.859,0,.628.318.869.84.869.762,0,1.119-.647,1.119-1.332v-.338c-.222-.019-.608-.058-.975-.058" transform="translate(-128.752 -81.814)" fill="#fff"/>
          <path id="Tracciato_248-2" data-name="Tracciato 248" d="M247.719,124.47a1.343,1.343,0,0,1,1.438,1.457v3.647a1.384,1.384,0,0,1-.483.068,1.251,1.251,0,0,1-.482-.068V126.1a.745.745,0,0,0-.84-.849,1.22,1.22,0,0,0-1.033.617v3.7a1.35,1.35,0,0,1-.473.068,1.251,1.251,0,0,1-.482-.068V126.1a.745.745,0,0,0-.84-.849,1.275,1.275,0,0,0-1.032.607v3.715a1.35,1.35,0,0,1-.473.068,1.257,1.257,0,0,1-.483-.068v-4.939a1.257,1.257,0,0,1,.483-.068,1.35,1.35,0,0,1,.473.068v.434a1.8,1.8,0,0,1,1.389-.6,1.292,1.292,0,0,1,1.255.7,1.947,1.947,0,0,1,1.582-.7" transform="translate(-133.604 -81.814)" fill="#fff"/>
          <path id="Tracciato_249-2" data-name="Tracciato 249" d="M258.537,127.4c.078,1.148.541,1.515,1.341,1.515a2.338,2.338,0,0,0,1.138-.28,1,1,0,0,1,.309.695,2.847,2.847,0,0,1-1.6.4c-1.486,0-2.181-.916-2.181-2.663,0-1.823.859-2.6,2.142-2.6a1.741,1.741,0,0,1,1.91,1.939,4.129,4.129,0,0,1-.106.994Zm1.148-2.171c-.627,0-1.071.414-1.148,1.486H260.6a3.285,3.285,0,0,0,.029-.434c0-.569-.231-1.052-.945-1.052" transform="translate(-140.676 -81.814)" fill="#fff"/>
          <path id="Tracciato_250-2" data-name="Tracciato 250" d="M269.78,124.488a1.522,1.522,0,0,1,.84.241,1.092,1.092,0,0,1-.425.81.972.972,0,0,0-.6-.2,1.249,1.249,0,0,0-.994.734v3.512a1.379,1.379,0,0,1-.482.068,1.257,1.257,0,0,1-.483-.068v-4.94a1.257,1.257,0,0,1,.483-.068,1.379,1.379,0,0,1,.482.068v.666a1.407,1.407,0,0,1,1.177-.82" transform="translate(-145.434 -81.822)" fill="#fff"/>
          <path id="Tracciato_251-2" data-name="Tracciato 251" d="M275.7,127.4c.078,1.148.54,1.515,1.341,1.515a2.338,2.338,0,0,0,1.138-.28.992.992,0,0,1,.309.695,2.843,2.843,0,0,1-1.6.4c-1.486,0-2.181-.916-2.181-2.663,0-1.823.859-2.6,2.142-2.6a1.741,1.741,0,0,1,1.91,1.939,4.132,4.132,0,0,1-.106.994Zm1.148-2.171c-.628,0-1.071.414-1.148,1.486h2.065a3.285,3.285,0,0,0,.029-.434c0-.569-.232-1.052-.945-1.052" transform="translate(-148.763 -81.814)" fill="#fff"/>
          <path id="Tracciato_252-2" data-name="Tracciato 252" d="M46.591,87.419c-.187,0-.361-.005-.549-.011-.955-.029-1.972-.03-2.76-.024a3.7,3.7,0,0,1,.062,1.147c.769-.006,1.756,0,2.675.024.195.005.406.009.6.011,1.91.026,2.77.111,2.77,1.822v16.1a3.15,3.15,0,0,1-1.19,2.458,27.27,27.27,0,0,1-5.623,2.583l-.874.336a2.821,2.821,0,1,0,.362,1.09l.917-.355a27.149,27.149,0,0,0,5.881-2.751,4.259,4.259,0,0,0,1.584-3.361v-16.1c0-2.915-2.125-2.945-3.855-2.969m-6.641,26.355a.824.824,0,1,1-.169-1.154.819.819,0,0,1,.169,1.154" transform="translate(-36.489 -64.333)" fill="#fff"/>
          <path id="Tracciato_253-2" data-name="Tracciato 253" d="M55,77.435,46.592,72.49a3.646,3.646,0,0,1-.5,1.023l8.367,4.917a3.124,3.124,0,0,1,1.569,2.756V100.7a4.605,4.605,0,0,1-.549,2.3,2.915,2.915,0,0,1-.7.848l-4,4.059c-.02-.011-.033-.027-.053-.038a2.82,2.82,0,1,0,.932.791l3.893-3.943a3.763,3.763,0,0,0,.883-1.151,5.724,5.724,0,0,0,.655-2.862V81.186A4.216,4.216,0,0,0,55,77.435m-4.832,33.292a.827.827,0,0,1-.734.445.825.825,0,0,1,0-1.651.809.809,0,0,1,.379.094.826.826,0,0,1,.351,1.112" transform="translate(-41.016 -57.315)" fill="#fff"/>
          <path id="Tracciato_254-2" data-name="Tracciato 254" d="M66.815,61l-5.39-12.96s0-.005-.009,0a3.968,3.968,0,0,1-1.068.434L65.8,61.435a14.374,14.374,0,0,1,1.176,5.5V94.709a7.088,7.088,0,0,1-.181,1.156l-1.706,5.278c-.05,0-.093-.012-.143-.012a2.8,2.8,0,0,0-.437,5.565,2.835,2.835,0,0,0,.45.036,2.8,2.8,0,0,0,1.229-5.315l1.643-5.243.05-.073a8.121,8.121,0,0,0,.153-1.391V66.935A15.47,15.47,0,0,0,66.815,61m-1.041,43.067a.821.821,0,0,1-.946.683.824.824,0,0,1-.683-.945.825.825,0,1,1,1.628.263" transform="translate(-47.734 -45.788)" fill="#fff"/>
          <path id="Tracciato_255-2" data-name="Tracciato 255" d="M75.9,105.017V43.786a2.9,2.9,0,0,1-1.057,0V105a3.044,3.044,0,0,0-2.3,2.752,2.812,2.812,0,0,0,2.814,2.8,2.783,2.783,0,0,0,2.779-2.8,2.539,2.539,0,0,0-2.24-2.738m-.525,3.562a.824.824,0,1,1,.824-.824.825.825,0,0,1-.824.824" transform="translate(-53.484 -43.786)" fill="#fff"/>
          <path id="Tracciato_256-2" data-name="Tracciato 256" d="M83.976,101.111c-.033,0-.066.007-.1.008L82.13,95.845a7.034,7.034,0,0,1-.182-1.156V66.916a14.379,14.379,0,0,1,1.182-5.5l5.427-12.988a3.771,3.771,0,0,1-1.028-.435l-5.42,12.983a15.467,15.467,0,0,0-1.219,5.94V94.69a8.138,8.138,0,0,0,.163,1.391l1.692,5.308a2.8,2.8,0,0,0,1.221,5.323,2.849,2.849,0,0,0,.451-.036,2.8,2.8,0,0,0-.441-5.565m.665,3.284a.821.821,0,0,1-.537.331.821.821,0,0,1-.946-.683.825.825,0,1,1,1.483.352" transform="translate(-57.416 -45.769)" fill="#fff"/>
          <path id="Tracciato_257-2" data-name="Tracciato 257" d="M93.326,108.19a2.781,2.781,0,0,0-.564.066l-5.794-8.246a5.156,5.156,0,0,1-1.02-2.843V73.684a7.035,7.035,0,0,1,1.914-4.607l8.405-9.268a3.68,3.68,0,0,1-.825-.758l-8.407,9.259a8.115,8.115,0,0,0-2.145,5.373V97.167a6.257,6.257,0,0,0,1.186,3.491l5.585,8.07a2.811,2.811,0,1,0,1.664-.539m.259,3.583a.806.806,0,0,1-.26.043.825.825,0,0,1-.259-1.608.835.835,0,0,1,.26-.043.825.825,0,0,1,.259,1.608" transform="translate(-59.301 -50.981)" fill="#fff"/>
          <path id="Tracciato_258-2" data-name="Tracciato 258" d="M49.742,110.123a2.8,2.8,0,1,0,4.308-1.381l5.576-8.07a6.232,6.232,0,0,0,1.164-3.491V73.7a8.1,8.1,0,0,0-2.125-5.374L50.293,59.08a5.07,5.07,0,0,1-.834.757l8.382,9.253A7.01,7.01,0,0,1,59.732,73.7V97.18a5.128,5.128,0,0,1-1,2.843l-5.768,8.246a2.756,2.756,0,0,0-3.224,1.855m1.875.622a.825.825,0,1,1,.783,1.084.8.8,0,0,1-.26-.043.825.825,0,0,1-.523-1.042" transform="translate(-42.602 -50.994)" fill="#fff"/>
          <path id="Tracciato_259-2" data-name="Tracciato 259" d="M96.546,107.521a2.785,2.785,0,0,0-1.291.317c-.02.01-.034.024-.054.035l-3.966-4.014-.055-.043a2.788,2.788,0,0,1-.68-.847,4.609,4.609,0,0,1-.553-2.3V81.16a3.12,3.12,0,0,1,1.569-2.76l8.42-4.937a3.726,3.726,0,0,1-.528-1.027L91,77.405A4.23,4.23,0,0,0,88.89,81.16v19.513a5.73,5.73,0,0,0,.657,2.861,3.958,3.958,0,0,0,.934,1.152l3.85,3.926a2.8,2.8,0,1,0,2.214-1.092m.383,3.532a.825.825,0,1,1,.35-1.112.818.818,0,0,1-.35,1.112" transform="translate(-61.186 -57.289)" fill="#fff"/>
          <path id="Tracciato_260-2" data-name="Tracciato 260" d="M106.28,111.611a2.8,2.8,0,0,0-4.661.253c-.28-.109-.557-.217-.851-.33a27.444,27.444,0,0,1-5.637-2.583,3.144,3.144,0,0,1-1.184-2.458v-16.1c0-1.711.854-1.8,2.763-1.822.192,0,.392-.006.586-.011.943-.029,1.959-.03,2.736-.023a3.717,3.717,0,0,1,.06-1.147c-.8-.007-1.847-.006-2.827.023-.188.006-.341.008-.528.011-1.73.024-3.849.054-3.849,2.969v16.1a4.255,4.255,0,0,0,1.58,3.361,27.253,27.253,0,0,0,5.893,2.751c.306.118.6.232.89.345a2.8,2.8,0,1,0,5.027-1.339m-1.754,2.334a.824.824,0,1,1,.17-1.154.819.819,0,0,1-.17,1.154" transform="translate(-63.072 -64.333)" fill="#fff"/>
        </g>
        <g id="Raggruppa_816-2" data-name="Raggruppa 816" transform="translate(0 0)">
          <path id="Tracciato_261-2" data-name="Tracciato 261" d="M189.928,142.348a1.385,1.385,0,0,1,.483-.068,1.43,1.43,0,0,1,.5.068v6.812a1.475,1.475,0,0,1-.491.068,1.291,1.291,0,0,1-.493-.068Z" transform="translate(-89.517 -67.06)" fill="#fff"/>
          <path id="Tracciato_262-2" data-name="Tracciato 262" d="M198.958,150.742a1.382,1.382,0,0,1-.482.068,1.311,1.311,0,0,1-.482-.068v-3.473c0-.541-.28-.85-.9-.85a1.321,1.321,0,0,0-1.091.617v3.7a1.445,1.445,0,0,1-.482.068,1.261,1.261,0,0,1-.483-.068V145.8a1.261,1.261,0,0,1,.483-.068,1.446,1.446,0,0,1,.482.068v.444a1.868,1.868,0,0,1,1.457-.607,1.363,1.363,0,0,1,1.5,1.456Z" transform="translate(-91.926 -68.643)" fill="#fff"/>
          <path id="Tracciato_263-2" data-name="Tracciato 263" d="M209.272,150.742a1.382,1.382,0,0,1-.482.068,1.311,1.311,0,0,1-.482-.068v-3.473c0-.541-.28-.85-.9-.85a1.321,1.321,0,0,0-1.091.617v3.7a1.445,1.445,0,0,1-.482.068,1.261,1.261,0,0,1-.483-.068V145.8a1.261,1.261,0,0,1,.483-.068,1.445,1.445,0,0,1,.482.068v.444a1.868,1.868,0,0,1,1.457-.607,1.363,1.363,0,0,1,1.5,1.456Z" transform="translate(-96.787 -68.643)" fill="#fff"/>
          <path id="Tracciato_264-2" data-name="Tracciato 264" d="M217.39,145.639c1.332,0,2.143.723,2.143,2.633s-.821,2.634-2.143,2.634-2.142-.724-2.142-2.634.82-2.633,2.142-2.633m0,.742c-.7,0-1.157.405-1.157,1.891s.453,1.891,1.157,1.891,1.148-.4,1.148-1.891-.444-1.891-1.148-1.891" transform="translate(-101.451 -68.643)" fill="#fff"/>
          <path id="Tracciato_265-2" data-name="Tracciato 265" d="M226.95,148.927a7.778,7.778,0,0,1,.271,1.032h.038s.116-.472.3-1.032l1.052-3.039a1.179,1.179,0,0,1,.435-.068,1.232,1.232,0,0,1,.453.068l-1.7,4.94a2.351,2.351,0,0,1-.578.068,2.179,2.179,0,0,1-.579-.068l-1.737-4.94a1.587,1.587,0,0,1,.5-.068,1.441,1.441,0,0,1,.5.068Z" transform="translate(-106.002 -68.728)" fill="#fff"/>
          <path id="Tracciato_266-2" data-name="Tracciato 266" d="M237.074,145.639c1.4,0,1.843.627,1.843,1.872v3.232a.757.757,0,0,1-.376.068.988.988,0,0,1-.386-.068l-.144-.618a1.551,1.551,0,0,1-1.515.782A1.41,1.41,0,0,1,235,149.3c0-1.052.646-1.515,1.852-1.515a10.325,10.325,0,0,1,1.1.058v-.357c0-.656-.251-1.032-.994-1.032a4.015,4.015,0,0,0-1.293.241.76.76,0,0,1-.222-.289.838.838,0,0,1-.058-.4,4.192,4.192,0,0,1,1.689-.357m-.1,2.8c-.647,0-.984.251-.984.859,0,.628.318.869.839.869.762,0,1.12-.647,1.12-1.332v-.338c-.222-.019-.609-.058-.975-.058" transform="translate(-110.761 -68.643)" fill="#fff"/>
          <path id="Tracciato_267-2" data-name="Tracciato 267" d="M247.437,145.656a1.519,1.519,0,0,1,.84.241,1.093,1.093,0,0,1-.424.81.976.976,0,0,0-.6-.2,1.249,1.249,0,0,0-.994.733v3.512a1.379,1.379,0,0,1-.482.068,1.254,1.254,0,0,1-.482-.068v-4.94a1.255,1.255,0,0,1,.482-.068,1.38,1.38,0,0,1,.482.068v.666a1.406,1.406,0,0,1,1.177-.821" transform="translate(-115.612 -68.651)" fill="#fff"/>
          <path id="Tracciato_268-2" data-name="Tracciato 268" d="M253.352,148.571c.078,1.148.541,1.515,1.341,1.515a2.338,2.338,0,0,0,1.139-.28,1,1,0,0,1,.309.7,2.849,2.849,0,0,1-1.6.4c-1.486,0-2.181-.916-2.181-2.663,0-1.823.859-2.6,2.142-2.6a1.741,1.741,0,0,1,1.91,1.939,4.142,4.142,0,0,1-.105.993Zm1.148-2.17c-.627,0-1.071.414-1.148,1.486h2.065a3.389,3.389,0,0,0,.029-.435c0-.569-.231-1.052-.946-1.052" transform="translate(-118.942 -68.643)" fill="#fff"/>
          <path id="Tracciato_269-2" data-name="Tracciato 269" d="M267.427,146.5c.078,1.148.541,1.515,1.341,1.515a2.339,2.339,0,0,0,1.139-.28,1,1,0,0,1,.309.7,2.849,2.849,0,0,1-1.6.4c-1.486,0-2.181-.916-2.181-2.663,0-1.823.859-2.6,2.142-2.6a1.741,1.741,0,0,1,1.91,1.939,4.142,4.142,0,0,1-.105.993Zm-.009-4.891a.957.957,0,0,1,.839-.357l.917,1.36a.822.822,0,0,1-.55.3Zm1.157,2.721c-.626,0-1.07.414-1.148,1.486h2.065a3.405,3.405,0,0,0,.029-.435c0-.569-.231-1.052-.946-1.052" transform="translate(-125.576 -66.573)" fill="#fff"/>
          <path id="Tracciato_270-2" data-name="Tracciato 270" d="M283.462,142.1a3.587,3.587,0,0,1,1.65.328.964.964,0,0,1-.29.733,3.748,3.748,0,0,0-1.244-.222c-1.119,0-1.9.588-1.9,2.74s.782,2.7,1.9,2.7a4.133,4.133,0,0,0,1.341-.222,1.078,1.078,0,0,1,.3.753,4.074,4.074,0,0,1-1.755.328c-1.843,0-2.808-1.216-2.808-3.57,0-2.335.955-3.57,2.808-3.57" transform="translate(-132.278 -66.973)" fill="#fff"/>
          <path id="Tracciato_271-2" data-name="Tracciato 271" d="M293.622,145.656a1.524,1.524,0,0,1,.84.241,1.091,1.091,0,0,1-.426.81.973.973,0,0,0-.6-.2,1.249,1.249,0,0,0-.993.733v3.512a1.378,1.378,0,0,1-.482.068,1.264,1.264,0,0,1-.483-.068v-4.94a1.265,1.265,0,0,1,.483-.068,1.379,1.379,0,0,1,.482.068v.666a1.406,1.406,0,0,1,1.177-.821" transform="translate(-137.38 -68.651)" fill="#fff"/>
          <path id="Tracciato_272-2" data-name="Tracciato 272" d="M299.537,148.571c.078,1.148.54,1.515,1.341,1.515a2.333,2.333,0,0,0,1.138-.28,1,1,0,0,1,.309.7,2.845,2.845,0,0,1-1.6.4c-1.486,0-2.181-.916-2.181-2.663,0-1.823.859-2.6,2.143-2.6a1.741,1.741,0,0,1,1.91,1.939,4.1,4.1,0,0,1-.106.993Zm1.148-2.17c-.628,0-1.071.414-1.148,1.486H301.6a3.207,3.207,0,0,0,.029-.435c0-.569-.231-1.052-.945-1.052" transform="translate(-140.709 -68.643)" fill="#fff"/>
          <path id="Tracciato_273-2" data-name="Tracciato 273" d="M310.016,145.639a2.745,2.745,0,0,1,1.36.26.982.982,0,0,1-.251.685,3.572,3.572,0,0,0-1.013-.154c-.656,0-.984.241-.984.694,0,.473.608.589,1.215.792.628.2,1.284.5,1.284,1.447,0,.974-.608,1.544-1.833,1.544a3.446,3.446,0,0,1-1.612-.347.983.983,0,0,1,.261-.714,4.115,4.115,0,0,0,1.3.241c.589,0,.926-.221.926-.694,0-.531-.531-.647-1.1-.811-.657-.193-1.37-.472-1.37-1.428,0-.907.589-1.514,1.815-1.514" transform="translate(-145.252 -68.643)" fill="#fff"/>
          <path id="Tracciato_274-2" data-name="Tracciato 274" d="M317.646,148.272c0,1.264.406,1.814,1.332,1.814a2.48,2.48,0,0,0,.906-.164,1.014,1.014,0,0,1,.28.695,2.623,2.623,0,0,1-1.389.289c-1.409,0-2.123-.916-2.123-2.634s.714-2.633,2.123-2.633a2.534,2.534,0,0,1,1.293.241.986.986,0,0,1-.28.694,2.356,2.356,0,0,0-.85-.144c-.926,0-1.293.588-1.293,1.842" transform="translate(-149.245 -68.643)" fill="#fff"/>
          <path id="Tracciato_275-2" data-name="Tracciato 275" d="M326.1,148.571c.078,1.148.54,1.515,1.341,1.515a2.336,2.336,0,0,0,1.138-.28,1,1,0,0,1,.309.7,2.845,2.845,0,0,1-1.6.4c-1.486,0-2.181-.916-2.181-2.663,0-1.823.859-2.6,2.143-2.6a1.741,1.741,0,0,1,1.91,1.939,4.1,4.1,0,0,1-.106.993Zm1.148-2.17c-.628,0-1.071.414-1.148,1.486h2.064a3.211,3.211,0,0,0,.029-.435c0-.569-.231-1.052-.945-1.052" transform="translate(-153.228 -68.643)" fill="#fff"/>
          <path id="Tracciato_276-2" data-name="Tracciato 276" d="M337.341,145.656a1.519,1.519,0,0,1,.84.241,1.093,1.093,0,0,1-.424.81.976.976,0,0,0-.6-.2,1.249,1.249,0,0,0-.994.733v3.512a1.379,1.379,0,0,1-.482.068,1.254,1.254,0,0,1-.482-.068v-4.94a1.255,1.255,0,0,1,.482-.068,1.379,1.379,0,0,1,.482.068v.666a1.406,1.406,0,0,1,1.177-.821" transform="translate(-157.986 -68.651)" fill="#fff"/>
          <path id="Tracciato_277-2" data-name="Tracciato 277" d="M343.257,148.571c.078,1.148.541,1.515,1.341,1.515a2.338,2.338,0,0,0,1.139-.28,1,1,0,0,1,.309.7,2.849,2.849,0,0,1-1.6.4c-1.486,0-2.181-.916-2.181-2.663,0-1.823.859-2.6,2.142-2.6a1.741,1.741,0,0,1,1.91,1.939,4.137,4.137,0,0,1-.105.993Zm1.148-2.17c-.626,0-1.071.414-1.148,1.486h2.065a3.4,3.4,0,0,0,.029-.435c0-.569-.231-1.052-.946-1.052" transform="translate(-161.316 -68.643)" fill="#fff"/>
          <path id="Tracciato_278-2" data-name="Tracciato 278" d="M189.928,7.323a7.671,7.671,0,0,0,.882-.2,5.053,5.053,0,0,1,1.018-.2,13.894,13.894,0,0,1,1.493-.068,14.933,14.933,0,0,1,1.527.068,6.694,6.694,0,0,1,1.12.2c.361.092.655.159.882.2V55.349a6.75,6.75,0,0,1-.882.272,12.862,12.862,0,0,1-2.579.2,12.116,12.116,0,0,1-2.647-.2,7.834,7.834,0,0,1-.814-.272Z" transform="translate(-89.517 -3.227)" fill="#fff"/>
          <path id="Tracciato_279-2" data-name="Tracciato 279" d="M221.894,30.73q0-12.449,4.954-18.809t14.8-6.36a29.313,29.313,0,0,1,4.99.374q2.137.374,3.631.781a19.867,19.867,0,0,1,2.986,1.157,5.479,5.479,0,0,1-.475,2.925,9.526,9.526,0,0,1-1.561,2.245q-1.221-.408-2.579-.749a20.718,20.718,0,0,0-2.783-.578,23.549,23.549,0,0,0-3.394-.238,15.879,15.879,0,0,0-5.43.884,9.469,9.469,0,0,0-4.208,3.095,15.977,15.977,0,0,0-2.748,5.918,37.52,37.52,0,0,0-.984,9.422,37.1,37.1,0,0,0,.984,9.387A15.279,15.279,0,0,0,232.821,46a9.393,9.393,0,0,0,4.208,2.993,16.43,16.43,0,0,0,5.43.85,31.793,31.793,0,0,0,3.7-.2,22.074,22.074,0,0,0,3.02-.545,19.088,19.088,0,0,0,2.715-.816,5.952,5.952,0,0,1,1.527,2.346,9.829,9.829,0,0,1,.576,2.96,16.234,16.234,0,0,1-3.189,1.157,27.291,27.291,0,0,1-3.869.816,36.8,36.8,0,0,1-5.294.34q-9.772,0-14.761-6.327T221.894,30.73" transform="translate(-104.583 -2.621)" fill="#fff"/>
          <path id="Tracciato_280-2" data-name="Tracciato 280" d="M78.3,33.488a3.734,3.734,0,1,1-3.734-3.734A3.734,3.734,0,0,1,78.3,33.488" transform="translate(-33.386 -14.024)" fill="#fff"/>
          <path id="Tracciato_281-2" data-name="Tracciato 281" d="M111.662,63.241a3.734,3.734,0,1,0,4.189,3.214,3.733,3.733,0,0,0-4.189-3.214" transform="translate(-51.098 -29.792)" fill="#fff"/>
          <path id="Tracciato_282-2" data-name="Tracciato 282" d="M111.371,81.987a3.734,3.734,0,1,0,2.232,4.786,3.734,3.734,0,0,0-2.232-4.786" transform="translate(-50.129 -38.536)" fill="#fff"/>
          <path id="Tracciato_283-2" data-name="Tracciato 283" d="M109.027,54.443a3.734,3.734,0,1,1,1.143-5.155,3.734,3.734,0,0,1-1.143,5.155" transform="translate(-48.681 -22.416)" fill="#fff"/>
          <path id="Tracciato_284-2" data-name="Tracciato 284" d="M97.041,40.51a3.734,3.734,0,1,1-1.366-5.1,3.733,3.733,0,0,1,1.366,5.1" transform="translate(-42.453 -16.454)" fill="#fff"/>
          <path id="Tracciato_285-2" data-name="Tracciato 285" d="M37.588,63.241A3.734,3.734,0,1,1,33.4,66.456a3.733,3.733,0,0,1,4.189-3.214" transform="translate(-15.726 -29.792)" fill="#fff"/>
          <path id="Tracciato_286-2" data-name="Tracciato 286" d="M37.841,81.987a3.734,3.734,0,1,1-2.232,4.786,3.734,3.734,0,0,1,2.232-4.786" transform="translate(-16.677 -38.536)" fill="#fff"/>
          <path id="Tracciato_287-2" data-name="Tracciato 287" d="M40.222,54.443a3.734,3.734,0,1,0-1.144-5.155,3.734,3.734,0,0,0,1.144,5.155" transform="translate(-18.143 -22.416)" fill="#fff"/>
          <path id="Tracciato_288-2" data-name="Tracciato 288" d="M52.207,40.51a3.734,3.734,0,1,0,1.366-5.1,3.733,3.733,0,0,0-1.366,5.1" transform="translate(-24.37 -16.454)" fill="#fff"/>
          <path id="Tracciato_289-2" data-name="Tracciato 289" d="M78.3,8.77a3.734,3.734,0,1,1-3.734-3.734A3.734,3.734,0,0,1,78.3,8.77" transform="translate(-33.386 -2.374)" fill="#fff"/>
          <path id="Tracciato_290-2" data-name="Tracciato 290" d="M87.762,2.848A3.734,3.734,0,1,0,92.276.108a3.734,3.734,0,0,0-4.514,2.74" transform="translate(-41.313 0)" fill="#fff"/>
          <path id="Tracciato_291-2" data-name="Tracciato 291" d="M118.187,16.751a3.734,3.734,0,1,0,5.269-.345,3.735,3.735,0,0,0-5.269.345" transform="translate(-55.267 -7.296)" fill="#fff"/>
          <path id="Tracciato_292-2" data-name="Tracciato 292" d="M138.754,43.132a3.734,3.734,0,1,0,4.833,2.127,3.734,3.734,0,0,0-4.833-2.127" transform="translate(-64.275 -20.209)" fill="#fff"/>
          <path id="Tracciato_293-2" data-name="Tracciato 293" d="M145.922,76.029a3.734,3.734,0,1,0,3.3,4.118,3.733,3.733,0,0,0-3.3-4.118" transform="translate(-66.825 -35.823)" fill="#fff"/>
          <path id="Tracciato_294-2" data-name="Tracciato 294" d="M100.494,14.2a3.734,3.734,0,1,0,5.036-1.588,3.734,3.734,0,0,0-5.036,1.588" transform="translate(-47.166 -5.745)" fill="#fff"/>
          <path id="Tracciato_295-2" data-name="Tracciato 295" d="M124.3,32.715a3.734,3.734,0,1,0,5.2.917,3.733,3.733,0,0,0-5.2-.917" transform="translate(-57.834 -15.101)" fill="#fff"/>
          <path id="Tracciato_296-2" data-name="Tracciato 296" d="M136.866,60.129a3.734,3.734,0,1,0,4.189,3.214,3.733,3.733,0,0,0-4.189-3.214" transform="translate(-62.977 -28.325)" fill="#fff"/>
          <path id="Tracciato_297-2" data-name="Tracciato 297" d="M134.352,90.248a3.734,3.734,0,1,0,2.232,4.786,3.733,3.733,0,0,0-2.232-4.786" transform="translate(-60.961 -42.429)" fill="#fff"/>
          <path id="Tracciato_298-2" data-name="Tracciato 298" d="M61.486,2.848A3.734,3.734,0,1,1,56.972.108a3.734,3.734,0,0,1,4.514,2.74" transform="translate(-25.51 0)" fill="#fff"/>
          <path id="Tracciato_299-2" data-name="Tracciato 299" d="M31.063,16.751a3.734,3.734,0,1,1-5.269-.345,3.735,3.735,0,0,1,5.269.345" transform="translate(-11.558 -7.296)" fill="#fff"/>
          <path id="Tracciato_300-2" data-name="Tracciato 300" d="M10.494,43.132a3.734,3.734,0,1,1-4.833,2.127,3.734,3.734,0,0,1,4.833-2.127" transform="translate(-2.548 -20.209)" fill="#fff"/>
          <path id="Tracciato_301-2" data-name="Tracciato 301" d="M3.328,76.029a3.734,3.734,0,1,1-3.3,4.118,3.733,3.733,0,0,1,3.3-4.118" transform="translate(0 -35.823)" fill="#fff"/>
          <path id="Tracciato_302-2" data-name="Tracciato 302" d="M48.755,14.2a3.734,3.734,0,1,1-5.036-1.588A3.734,3.734,0,0,1,48.755,14.2" transform="translate(-19.658 -5.745)" fill="#fff"/>
          <path id="Tracciato_303-2" data-name="Tracciato 303" d="M24.95,32.715a3.734,3.734,0,1,1-5.2.917,3.733,3.733,0,0,1,5.2-.917" transform="translate(-8.99 -15.101)" fill="#fff"/>
          <path id="Tracciato_304-2" data-name="Tracciato 304" d="M12.383,60.129a3.734,3.734,0,1,1-4.189,3.214,3.734,3.734,0,0,1,4.189-3.214" transform="translate(-3.847 -28.325)" fill="#fff"/>
          <path id="Tracciato_305-2" data-name="Tracciato 305" d="M14.9,90.248a3.734,3.734,0,1,1-2.232,4.786A3.734,3.734,0,0,1,14.9,90.248" transform="translate(-5.862 -42.429)" fill="#fff"/>
          <path id="Tracciato_306-2" data-name="Tracciato 306" d="M83.44,19.984a3.734,3.734,0,1,0,4.514-2.74,3.733,3.733,0,0,0-4.514,2.74" transform="translate(-39.276 -8.077)" fill="#fff"/>
          <path id="Tracciato_307-2" data-name="Tracciato 307" d="M106.44,29.96a3.734,3.734,0,1,0,5.269-.345,3.734,3.734,0,0,0-5.269.345" transform="translate(-49.731 -13.522)" fill="#fff"/>
          <path id="Tracciato_308-2" data-name="Tracciato 308" d="M122.234,49.427a3.734,3.734,0,1,0,4.833,2.127,3.734,3.734,0,0,0-4.833-2.127" transform="translate(-56.489 -23.176)" fill="#fff"/>
          <path id="Tracciato_309-2" data-name="Tracciato 309" d="M127.361,73.989a3.734,3.734,0,1,0,3.3,4.117,3.732,3.732,0,0,0-3.3-4.117" transform="translate(-58.077 -34.862)" fill="#fff"/>
          <path id="Tracciato_310-2" data-name="Tracciato 310" d="M65.808,19.984a3.734,3.734,0,1,1-4.514-2.74,3.733,3.733,0,0,1,4.514,2.74" transform="translate(-27.547 -8.077)" fill="#fff"/>
          <path id="Tracciato_311-2" data-name="Tracciato 311" d="M42.81,29.96a3.734,3.734,0,1,1-5.269-.345,3.734,3.734,0,0,1,5.269.345" transform="translate(-17.095 -13.522)" fill="#fff"/>
          <path id="Tracciato_312-2" data-name="Tracciato 312" d="M27.014,49.427a3.734,3.734,0,1,1-4.833,2.127,3.734,3.734,0,0,1,4.833-2.127" transform="translate(-10.334 -23.176)" fill="#fff"/>
          <path id="Tracciato_313-2" data-name="Tracciato 313" d="M21.889,73.989a3.734,3.734,0,1,1-3.3,4.117,3.733,3.733,0,0,1,3.3-4.117" transform="translate(-8.749 -34.862)" fill="#fff"/>
        </g>
      </g>
    </g>
  </g>
</svg>
